<svg xmlns="http://www.w3.org/2000/svg" viewBox="0 0 48 48"><path fill="#47caf0" d="M18.686,41h-6.677c-6.08,0-11.009-4.929-11.009-11.009h0c0-6.072,4.916-10.998,10.989-11.009l3.914-.007c2.646-.005,5.182-1.058,7.052-2.929l2.116-2.116c1.875-1.875,4.419-2.929,7.071-2.929h2.358c6.904,0,12.5,5.596,12.5,12.5h0c0,6.904-5.596,12.5-12.5,12.5h-4.186c-2.122,0-4.157.843-5.657,2.343l-.314.314c-1.5,1.5-3.535,2.343-5.657,2.343Z"/><path fill="#20aee1" d="M36 17h-4c-.553 0-1-.448-1-1s.447-1 1-1h4c.553 0 1 .448 1 1s-.447 1-1 1zM40.98 22h-3.98c-.553 0-1-.448-1-1s.447-1 1-1h3.98c.553 0 1 .448 1 1s-.447 1-1 1zM32 22h-5c-.553 0-1-.448-1-1s.447-1 1-1h5c.553 0 1 .448 1 1s-.447 1-1 1zM39 27h-8c-.553 0-1-.448-1-1s.447-1 1-1h8c.553 0 1 .448 1 1s-.447 1-1 1zM25 27h-10c-.553 0-1-.448-1-1s.447-1 1-1h10c.553 0 1 .448 1 1s-.447 1-1 1zM22 32h-6c-.553 0-1-.448-1-1s.447-1 1-1h6c.553 0 1 .448 1 1s-.447 1-1 1zM17 37h-6c-.553 0-1-.448-1-1s.447-1 1-1h6c.553 0 1 .448 1 1s-.447 1-1 1zM11 27h-2c-.553 0-1-.448-1-1s.447-1 1-1h2c.553 0 1 .448 1 1s-.447 1-1 1z"/><path fill="#9a4c29" d="M30 46c-.553 0-1-.448-1-1v-4c0-.552.447-1 1-1s1 .448 1 1v4c0 .552-.447 1-1 1zM41 46c-.553 0-1-.448-1-1v-4c0-.552.447-1 1-1s1 .448 1 1v4c0 .552-.447 1-1 1z"/><rect width="8" height="11" x="26" y="31" fill="#00d18d" rx="4" ry="4"/><path fill="#00d18d" d="M44,33.38v-1.38c0-1.657-1.343-3-3-3s-3,1.343-3,3v1.38c-.615.703-1,1.613-1,2.62v2c0,2.209,1.791,4,4,4s4-1.791,4-4v-2c0-1.008-.385-1.917-1-2.62Z"/><path fill="#00b277" d="M31.5 40c-1.933 0-3.5-1.567-3.5-3.5v-4c0-.365.072-.71.175-1.04-1.286.665-2.175 1.992-2.175 3.54v3c0 2.209 1.791 4 4 4 1.827 0 3.35-1.232 3.829-2.905-.62.557-1.431.905-2.329.905zM41.681 39.907c-1.298-.294-2.339-1.368-2.606-2.672-.211-1.032.036-2.003.571-2.756.234-.329.354-.723.354-1.127v-2.183c0-.808.302-1.573.804-2.15-1.564.103-2.804 1.391-2.804 2.98v1.38c-.615.703-1 1.613-1 2.62v2c0 2.209 1.791 4 4 4 1.828 0 3.353-1.234 3.83-2.909-.804.724-1.935 1.092-3.149.816z"/><path fill="#9a4c29" d="M18 17c-.553 0-1-.448-1-1v-4c0-.552.447-1 1-1s1 .448 1 1v4c0 .552-.447 1-1 1zM7 17c-.553 0-1-.448-1-1v-4c0-.552.447-1 1-1s1 .448 1 1v4c0 .552-.447 1-1 1z"/><circle cx="7" cy="8.5" r="4.5" fill="#00d18d"/><rect width="8" height="11" x="14" y="2" fill="#00d18d" rx="4" ry="4"/><path fill="#00b277" d="M8.688 10.75c-2.175 0-3.938-1.763-3.938-3.938 0-1.011.392-1.923 1.018-2.62-1.882.539-3.268 2.253-3.268 4.308 0 2.485 2.015 4.5 4.5 4.5 2.055 0 3.769-1.386 4.308-3.268-.697.626-1.609 1.018-2.62 1.018zM19.5 11c-1.933 0-3.5-1.567-3.5-3.5V3.5c0-.365.072-.71.175-1.04-1.286.665-2.175 1.992-2.175 3.54v3c0 2.209 1.791 4 4 4 1.827 0 3.35-1.232 3.829-2.905-.62.557-1.431.905-2.329.905z"/></svg>