<svg xmlns="http://www.w3.org/2000/svg" xml:space="preserve" viewBox="0 0 128 128" id="tree">
  <circle cx="64" cy="64" r="64" fill="#C6DFDC"></circle>
  <circle cx="64" cy="64" r="64" fill="#C6DFDC"></circle>
  <path fill="#95CECD" d="m72.7 21.8-35.4 57 26.3 26.3-.3 3.8-10.9 1.8 17.2 17.2c28.8-2.4 52.1-23.9 57.4-51.8L72.7 21.8z"></path>
  <path fill="#3D9C46" d="M90.2 54.8c.8-1.5 1.3-3.2 1.3-5.1 0-5.4-3.9-9.8-9.1-10.6 0-.4.1-.7.1-1.1 0-4.8-3.1-8.8-7.4-10.2-.5-5.8-5.4-10.4-11.3-10.4-6 0-10.9 4.6-11.3 10.5-4.5 1.2-7.8 5.3-7.8 10.2v.8c-4.9 1.5-8.5 6.1-8.5 11.5 0 2.1.6 4.1 1.6 5.9-3.9 2.3-6.6 6.6-6.6 11.5 0 7.4 6 13.4 13.4 13.4h38.2C90.7 81.2 97 74.8 97 67c-.1-5.2-2.8-9.7-6.8-12.2z"></path>
  <circle cx="66.9" cy="33.3" r="2.9" fill="#1C8141"></circle>
  <circle cx="52" cy="44.1" r="2.4" fill="#1C8141"></circle>
  <circle cx="72.7" cy="52.9" r="2.1" fill="#1C8141"></circle>
  <circle cx="83.7" cy="51.3" r="2.1" fill="#1C8141"></circle>
  <circle cx="44.4" cy="52.9" r="2.1" fill="#1C8141"></circle>
  <circle cx="76.8" cy="39.6" r="2.1" fill="#1C8141"></circle>
  <circle cx="44.4" cy="70.9" r="2.1" fill="#1C8141"></circle>
  <circle cx="82.9" cy="70.4" r="1.6" fill="#1C8141"></circle>
  <circle cx="68.3" cy="68.7" r="1.3" fill="#1C8141"></circle>
  <circle cx="62.7" cy="50" r="1.3" fill="#1C8141"></circle>
  <circle cx="57.3" cy="30.4" r="1.3" fill="#1C8141"></circle>
  <circle cx="49" cy="60.2" r="1.6" fill="#1C8141"></circle>
  <path fill="#EEB496" d="M68.4 81.1h-8.9s-1.2 22-6.2 29.5h21.1c-4.8-7.5-6-29.5-6-29.5z"></path>
  <path fill="#53B95A" d="M78.8 102.8c-2.2.2-4.2 1.3-5.5 3 .6-1.8 1.7-3.4 3.3-4.5-2.3.7-4.1 2.3-5.1 4.4.1-2 .9-3.8 2.2-5.3-1.5.8-2.6 2.1-3.3 3.6-.7-.9-1.5-1.6-2.5-2.2.9 1 1.5 2.3 1.9 3.6-.1.3-.1.5-.2.8-1.1-1.7-2.7-2.9-4.6-3.5 1.5 1.1 2.7 2.7 3.3 4.5-1.4-1.6-3.4-2.7-5.5-3 2.1 1 3.8 2.8 4.6 5h-2.5c.4-.5.9-1 1.5-1.2-.9.1-1.8.6-2.4 1.2.3-.8.7-1.4 1.4-1.9-.8.3-1.5.8-2 1.6 0-.1 0-.2-.1-.4.2-.6.4-1.1.8-1.6-.4.2-.8.6-1.1 1-.3-.6-.8-1.2-1.4-1.6.6.6.9 1.4 1 2.3-.4-.9-1.2-1.6-2.2-1.9.7.5 1.1 1.2 1.4 1.9-.6-.7-1.5-1.2-2.4-1.3.8.4 1.5 1 1.8 1.8h-3.3c.5-2 1.9-3.6 3.7-4.5-1.7.2-3.1 1-4.2 2.2.5-1.4 1.3-2.5 2.5-3.4-1.7.5-3.1 1.8-3.9 3.3.1-1.5.7-2.9 1.7-4-1.1.6-2 1.6-2.5 2.7-.5-.7-1.1-1.2-1.9-1.7.7.8 1.2 1.7 1.5 2.8-.1.2-.1.4-.1.6-.8-1.3-2-2.2-3.5-2.7 1.1.8 2 2 2.5 3.4-1-1.2-2.5-2.1-4.2-2.2 1.7.8 2.9 2.2 3.6 4-.2.3-.3.6-.5.8h23.5c-.3-.4-.5-.9-.8-1.4h-1.1c.2-2.7 2.1-5.1 4.6-6.2z"></path>
</svg>
