<svg xmlns="http://www.w3.org/2000/svg" xml:space="preserve" viewBox="0 0 128 128" id="spa">
  <circle cx="64" cy="64" r="64" fill="#05B0A6"></circle>
  <path fill="#029A9C" d="m23.7 77.7 49.6 49.6c25.3-3.7 45.8-22.1 52.4-46.4L85 40.2 23.7 77.7z"></path>
  <path fill="#454E5C" d="M100.6 84.6c0 8.3-13.7 8.5-30.7 8.5s-30.7-.2-30.7-8.5 13.7-19.1 30.7-19.1 30.7 10.8 30.7 19.1z"></path>
  <path fill="#010101" d="M86.7 69.2c.3.8.4 1.7.4 2.6 0 8.2-12 14.8-26.8 14.8-8.1 0-15.4-2-20.3-5.2-.4 1.1-.6 2.1-.6 3.2 0 8.3 13.7 8.5 30.7 8.5 16.9 0 30.7-.2 30.7-8.5-.2-5.3-5.7-11.6-14.1-15.4z" opacity=".15"></path>
  <path fill="#545E70" d="M97.1 70.9c0 7.4-12.2 7.5-27.2 7.5s-27.2-.2-27.2-7.5C42.8 63.5 55 54 70 54s27.1 9.5 27.1 16.9z"></path>
  <path fill="#545E70" d="M97.1 70.9c0 7.4-12.2 7.5-27.2 7.5s-27.2-.2-27.2-7.5C42.8 63.5 55 54 70 54s27.1 9.5 27.1 16.9z"></path>
  <path fill="#010101" d="M84.7 57.3c.2.7.4 1.5.4 2.3 0 7.3-10.6 13.1-23.7 13.1-7.2 0-13.6-1.8-18-4.6-.4.9-.5 1.9-.5 2.8 0 7.4 12.2 7.5 27.2 7.5s27.1-.2 27.1-7.5c-.1-4.7-5-10.2-12.5-13.6z" opacity=".15"></path>
  <path fill="#545E70" d="M94.6 59.4c0 6.7-11 6.8-24.6 6.8s-24.6-.2-24.6-6.8 11-15.3 24.6-15.3 24.6 8.6 24.6 15.3z"></path>
  <path fill="#454E5C" d="M94.6 59.4c0 6.7-11 6.8-24.6 6.8s-24.6-.2-24.6-6.8 11-15.3 24.6-15.3 24.6 8.6 24.6 15.3z"></path>
  <path fill="#010101" d="M83.4 47c.2.7.3 1.4.3 2.1 0 6.6-9.6 11.9-21.5 11.9-6.5 0-12.4-1.6-16.3-4.1-.3.9-.5 1.7-.5 2.5 0 6.7 11 6.9 24.6 6.9 13.6 0 24.6-.2 24.6-6.9 0-4.2-4.5-9.3-11.2-12.4z" opacity=".15"></path>
  <path fill="#545E70" d="M88.4 46.3c0 5-8.3 5.1-18.4 5.1-10.2 0-18.4-.1-18.4-5.1S59.9 34.8 70 34.8c10.2.1 18.4 6.5 18.4 11.5z"></path>
  <path fill="#626C77" d="M88.4 46.3c0 5-8.3 5.1-18.4 5.1-10.2 0-18.4-.1-18.4-5.1S59.9 34.8 70 34.8c10.2.1 18.4 6.5 18.4 11.5z"></path>
  <path fill="#010101" d="M80 37c.2.5.2 1 .2 1.5 0 4.9-7.2 8.9-16.1 8.9-4.9 0-9.3-1.2-12.2-3.1-.2.6-.4 1.3-.4 1.9 0 5 8.3 5.1 18.4 5.1 10.2 0 18.4-.1 18.4-5.1.1-3.1-3.2-6.8-8.3-9.2z" opacity=".15"></path>
  <g fill="#E6E8EB">
    <path d="M57.4 44s-5.1-2.9-9.4 1.4c-4.3 4.3-6.2 14.2-6.2 14.2s9.9-1.9 14.2-6.2c4.3-4.3 1.4-9.4 1.4-9.4zM23.7 77.7s5.1 2.9 9.4-1.4c4.3-4.3 6.2-14.2 6.2-14.2s-9.9 1.9-14.2 6.2c-4.3 4.4-1.4 9.4-1.4 9.4zM41.8 62.1S43.7 72 48 76.3s9.4 1.4 9.4 1.4 2.9-5.1-1.4-9.4c-4.3-4.2-14.2-6.2-14.2-6.2zM23.7 44s-2.9 5.1 1.4 9.4c4.3 4.3 14.2 6.2 14.2 6.2s-1.9-9.9-6.2-14.2c-4.3-4.3-9.4-1.4-9.4-1.4z"></path>
  </g>
  <g fill="#FFF">
    <path d="M46.2 44.7c0-6.1-5.6-7.6-5.6-7.6S35 38.6 35 44.7s5.6 14.5 5.6 14.5 5.6-8.4 5.6-14.5zM34.9 77.1c0 6.1 5.6 7.6 5.6 7.6s5.6-1.5 5.6-7.6-5.6-14.5-5.6-14.5-5.6 8.4-5.6 14.5zM56.8 55.3c-6.1 0-14.5 5.6-14.5 5.6s8.4 5.6 14.5 5.6 7.6-5.6 7.6-5.6-1.5-5.6-7.6-5.6zM24.3 55.3c-6.1 0-7.6 5.6-7.6 5.6s1.5 5.6 7.6 5.6 14.5-5.6 14.5-5.6-8.4-5.6-14.5-5.6z"></path>
  </g>
  <circle cx="40.5" cy="60.9" r="6.2" fill="#FFCD0A"></circle>
</svg>
