<svg xmlns="http://www.w3.org/2000/svg" xml:space="preserve" viewBox="0 0 256 256" id="temple">
  <path fill="#6DB8E0" d="M128 1C57.9 1 1 57.9 1 128c0 34.8 14 66.3 36.6 89.2h180.7C241 194.3 255 162.8 255 128 255 57.9 198.1 1 128 1z"></path>
  <path fill="#EDF0F2" d="M107 79.3c6.4 1.2 12.1-4.4 18.5-5.7 3.5-.7 8.5-1.2 8.8-4.8.1-1.2-.5-2.4-1.2-3.4-3.8-5.7-11-8.8-17.7-7.5-1.2-3.9-3.6-7.6-7.4-9.1-3.7-1.5-8.8-.2-10.4 3.5-.5 1.1-.9 2.5-2 2.6-1.9-3-4.2-6-7.4-7.6-3.2-1.6-7.5-1.4-9.9 1.2-1.2 1.3-1.8 3-2.4 4.7-.6 1.8-1.2 3.6-1.8 5.3-1.8-2.1-5.4-2.4-7.6-.6-.8.6-1.4 1.5-2.3 2-1.3.8-2.9.7-4.5.8-2.7.1-5.5.7-7.6 2.5-2.1 1.7-3.3 4.8-2.2 7.3 1.2 2.9 4.6 4.1 7.7 5 4.6 1.3 9.2 2.6 13.7 3.9 1.4.4 3 .8 4.4.5 1.5-.3 2.9-1.6 2.8-3.1 4.2 2.5 9.6 2.9 14.1 1.1 1.4-.5 2.7-1.3 4.1-1.5 3.6-.4 6.8 2.3 10.3 2.9zM218.7 104.3c5 .9 9.4-3.4 14.3-4.4 2.7-.6 6.6-.9 6.8-3.7.1-.9-.4-1.8-.9-2.6-2.9-4.4-8.6-6.8-13.7-5.8-.9-3-2.8-5.9-5.7-7.1-2.9-1.2-6.8-.2-8.1 2.7-.4.8-.7 1.9-1.6 2-1.5-2.3-3.2-4.6-5.7-5.9-2.5-1.2-5.8-1.1-7.7.9-.9 1-1.4 2.3-1.8 3.6-.5 1.4-.9 2.8-1.4 4.1-1.4-1.6-4.2-1.9-5.9-.5-.6.5-1.1 1.2-1.7 1.6-1 .6-2.3.6-3.5.6-2.1.1-4.3.6-5.9 1.9-1.6 1.3-2.5 3.7-1.7 5.6.9 2.3 3.6 3.2 5.9 3.9 3.6 1 7.1 2 10.7 3 1.1.3 2.3.6 3.4.4 1.1-.2 2.2-1.2 2.1-2.4 3.3 1.9 7.4 2.3 11 .8 1.1-.4 2.1-1 3.2-1.2 2.7-.1 5.1 2 7.9 2.5z"></path>
  <path fill="#1AA386" d="M128 255c35.4 0 67.3-14.5 90.4-37.8H37.6c23.1 23.3 55 37.8 90.4 37.8z"></path>
  <path fill="#BF4028" d="M198.6 128.8 128 88.4l-70.6 40.4 10.4 5.3.1.1h120.3v-.1z"></path>
  <path fill="#CAB094" d="M188.2 134.1 128 99.7l-60.2 34.4V212h120.4v-77.9z"></path>
  <path fill="#F9E0D2" d="M102.5 91.9v119.6h51V91.9z"></path>
  <path fill="#BF4028" d="M128 39.1 98.1 91.9h59.8z"></path>
  <path fill="#AD8C6D" d="M63.3 211.5h129.3v5.7H63.3z"></path>
  <path fill="#BF4028" d="M127.4 22h1.3v22.5h-1.3z"></path>
  <path fill="#BF4028" d="M123.4 26.3h9.1v1h-9.1z"></path>
  <g fill="#1F84AB">
    <path d="M80.4 150.4h11V192h-11zM164.6 150.4h11V192h-11z"></path>
  </g>
  <path fill="#2C424F" d="M117.2 173.1h21.6v38.4h-21.6z"></path>
  <path fill="#1F84AB" d="M119 101.6h18v18.5h-18zM119 137.3h18v18.5h-18z"></path>
  <path fill="#EDF0F2" d="M1.2 135.4c3.2.8 6.7.6 9.8-.7 1.4-.6 2.7-1.3 4.2-1.5 3.5-.5 6.7 2.2 10.2 2.8 6.5 1.2 12.1-4.4 18.6-5.7 3.6-.7 8.5-1.2 8.8-4.8.1-1.2-.5-2.4-1.2-3.4-3.8-5.7-11.1-8.8-17.8-7.6-1.2-3.9-3.6-7.6-7.4-9.2-3.8-1.6-8.8-.2-10.4 3.5-.5 1.1-.9 2.5-2 2.6-1.9-3-4.2-6-7.4-7.6-.9-.5-2-.8-3-.9C1.8 111.1 1 119.5 1 128c0 2.5.1 4.9.2 7.4z"></path>
</svg>
