<svg viewBox="0 0 24 24" xmlns="http://www.w3.org/2000/svg" fill="none">
  <!-- city · #48566b ink-soft · skyline -->
  <!-- back towers, lighter -->
  <path d="M3 11 C3 10.6 3.3 10.3 3.7 10.3 L5.3 10.3 C5.7 10.3 6 10.6 6 11 L6 20.5 L3 20.5 Z" fill="#8b96a8"/>
  <path d="M16.5 9 C16.5 8.6 16.8 8.3 17.2 8.3 L19 8.3 C19.4 8.3 19.7 8.6 19.7 9 L19.7 20.5 L16.5 20.5 Z" fill="#8b96a8"/>
  <!-- front towers, main -->
  <path d="M6 13 C6 12.6 6.3 12.3 6.7 12.3 L9.3 12.3 C9.7 12.3 10 12.6 10 13 L10 20.5 L6 20.5 Z" fill="#48566b"/>
  <path d="M13 6.5 C13 6.1 13.3 5.8 13.7 5.8 L15.3 5.8 C15.7 5.8 16 6.1 16 6.5 L16 20.5 L13 20.5 Z" fill="#48566b"/>
  <path d="M10 15 C10 14.6 10.3 14.3 10.7 14.3 L12.3 14.3 C12.7 14.3 13 14.6 13 15 L13 20.5 L10 20.5 Z" fill="#5f6c80"/>
  <!-- windows, few, irregular -->
  <rect x="7" y="14.2" width="1" height="1" rx="0.3" fill="#cdd4de"/>
  <rect x="8.3" y="16.2" width="1" height="1" rx="0.3" fill="#cdd4de"/>
  <rect x="14" y="8" width="1" height="1" rx="0.3" fill="#cdd4de"/>
  <rect x="14" y="11" width="1" height="1" rx="0.3" fill="#cdd4de"/>
</svg>
