<svg viewBox="0 0 24 24" xmlns="http://www.w3.org/2000/svg" fill="none">
  <!-- coast · #2f7d8e teal · layered ocean waves + sun -->
  <!-- sun -->
  <circle cx="17.8" cy="6.5" r="2.8" fill="#7fc0cc"/>
  <!-- far wave, light -->
  <path d="M2 13.5 C5 11.5 7 14 10 13 C13 12 15 14.2 18 13 C20 12.2 21 13 22 13.5 L22 15 L2 15 Z" fill="#9ed0d9"/>
  <!-- mid wave -->
  <path d="M2 16.5 C5.5 14 8 17 12 15.6 C15.5 14.4 18 17 22 15.6 L22 18 L2 18 Z" fill="#4f9aa8"/>
  <!-- front wave, main dark -->
  <path d="M2 19.8 C6 16.8 9 20 13 18.4 C16.5 17 19 20 22 18.6 L22 21 L2 21 Z" fill="#2f7d8e"/>
  <!-- foam crests, few -->
  <path d="M6 16.4 C6.7 15.7 7.6 15.7 8.3 16.4" stroke="#ffffff" stroke-width="1" stroke-linecap="round"/>
  <path d="M14.5 16.9 C15.2 16.3 16 16.3 16.7 16.9" stroke="#eafafa" stroke-width="0.9" stroke-linecap="round"/>
</svg>
