<svg viewBox="0 0 24 24" xmlns="http://www.w3.org/2000/svg" fill="none">
  <!-- lake · #6b8aa8 snow-blue · mountain mirrored in still water -->
  <!-- mountain above, solid -->
  <path d="M2.5 11.5 C6 6 9 3 11 3 C13 3 16 7 19.5 11.5 Z" fill="#4f7494"/>
  <!-- snow cap -->
  <path d="M8.3 6 C9.6 4 10.4 3 11 3 C11.6 3 12.5 4.3 13.7 6.3 C12.9 5.7 12.1 6.3 11.3 5.8 C10.6 6.3 9.4 5.6 8.3 6 Z" fill="#ffffff"/>
  <!-- water band divider -->
  <rect x="2.5" y="11.8" width="17" height="0.9" rx="0.4" fill="#dce7f0"/>
  <!-- reflection, paler & inverted -->
  <path d="M2.5 13 C6 18.5 9 21.5 11 21.5 C13 21.5 16 17 19.5 13 Z" fill="#9fb6cc"/>
  <!-- ripple lines breaking reflection -->
  <path d="M5 16 C8 16.7 14 16.7 17 16" stroke="#eaf1f7" stroke-width="0.9" stroke-linecap="round"/>
  <path d="M7.5 18.6 C9.5 19.1 12.5 19.1 14.5 18.6" stroke="#eaf1f7" stroke-width="0.9" stroke-linecap="round"/>
</svg>
