<svg viewBox="0 0 24 24" xmlns="http://www.w3.org/2000/svg" fill="none">
  <!-- nature · #2f7d52 green · cluster of trees -->
  <!-- left tree, lighter -->
  <path d="M3 13 C3 10 4.6 8.2 6.3 8.2 C8 8.2 9.4 10 9.4 13 C9.4 15.4 7.8 16.6 6.3 16.6 C4.6 16.6 3 15.4 3 13 Z" fill="#5aa178"/>
  <path d="M5.7 16 C5.8 17.6 5.8 18.8 5.9 20.5 L6.7 20.5 C6.8 18.8 6.8 17.6 6.9 16 Z" fill="#5aa178"/>
  <!-- right tree, dark -->
  <path d="M15.5 14 C15.5 11.4 16.8 9.8 18.2 9.8 C19.6 9.8 20.8 11.4 20.8 14 C20.8 16 19.5 17 18.2 17 C16.8 17 15.5 16 15.5 14 Z" fill="#1f5d3b"/>
  <path d="M17.7 16.6 C17.8 18 17.8 19.1 17.9 20.5 L18.7 20.5 C18.8 19.1 18.8 18 18.9 16.6 Z" fill="#1f5d3b"/>
  <!-- center tree, main, tallest -->
  <path d="M8 11 C8 7 10 4.5 12.2 4.5 C14.4 4.5 16.3 7 16.3 11 C16.3 14 14.3 15.6 12.2 15.6 C10 15.6 8 14 8 11 Z" fill="#2f7d52"/>
  <!-- center trunk, taper -->
  <path d="M11.5 15 C11.6 17.2 11.6 18.6 11.8 20.5 L12.7 20.5 C12.9 18.6 12.9 17.2 13 15 Z" fill="#2f7d52"/>
</svg>
