<svg xmlns="http://www.w3.org/2000/svg" viewBox="0 0 1364 960" id="mountain-day-in-japan">
  <defs>
    <linearGradient id="brandSky" x1="682" x2="682" y1="826.5" y2="77.72" gradientUnits="userSpaceOnUse">
      <stop offset="0" stop-color="#d1fbff"></stop>
      <stop offset="1" stop-color="#69c9f5"></stop>
    </linearGradient>
    <linearGradient id="brandSun" x1="757.32" x2="757.32" y1="691.51" y2="207.52" gradientUnits="userSpaceOnUse">
      <stop offset="0" stop-color="#f55b2d"></stop>
      <stop offset="1" stop-color="#ec210a"></stop>
    </linearGradient>
  </defs>
  <path fill="url(#brandSky)" d="M1300.57,700.51a326.85,326.85,0,0,1-4.06,38.89c-.9,5.28-1.93,10.5-3.13,15.61-.56,2.41-1.15,4.8-1.8,7.16-6.7,25-17.47,47.38-33.8,64.33l-11.46-.14-67.83-.82-30.43-.37-27-.33-92.2-1.12-5.88-.07-41.34-.5L880,821.92l-171.77-2.1-44.37-.53-97.25-1.18-127.11-1.55-34.61-.42L309.67,815l-45.29-.55-165.58-2-11-.14q-6.1-20.2-10.87-41c-.21-.88-.41-1.76-.61-2.64q-5-22.21-8.45-44.93-1.47-9.69-2.64-19.45c-1.54-12.75-2.69-25.76-2-38.56a114,114,0,0,1,1.38-12.78c4.17-24.86,15.89-43.51,31-59.61.6-.64,1.2-1.26,1.8-1.88.18-.2.37-.4.57-.59,1.89-2,3.85-3.88,5.83-5.77,2.5-2.38,5.08-4.71,7.69-7l.36-.33c3.83-3.37,7.78-6.67,11.78-10q4.63-3.79,9.35-7.6c22.51-18.23,45.43-36.75,60.2-63.12,17.3-30.86,21.65-69.31,24.82-107.37.66-7.89,1.25-15.76,1.91-23.55,0-.15,0-.31,0-.46,5-58.95,15.69-120.65,47.93-163.86,36-48.33,97.18-63.71,145.23-36.52,21.41,12.12,40.25,31.7,62.94,39.24,28.12,9.35,57.93-1.13,84.91-14.8,59.79-30.31,114.51-76.63,176.62-98.36a240.13,240.13,0,0,1,144-4.92c39.21,10.88,79.43,35.11,97.38,80.29,24.07,60.56.3,136.11,17.94,200.09,16.3,59.07,64.09,94.9,111.19,114.88,13.77,5.85,27.82,10.81,41.9,15.69q8.64,3,17.25,6l.91.31c2.9,1,5.8,2.06,8.7,3.12l2.31.84,1,.36c2.45.91,4.91,1.83,7.36,2.78l1.13.42c3.62,1.41,7.23,2.85,10.83,4.37s7.48,3.2,11.19,4.92,7.37,3.51,11,5.4h0a216.12,216.12,0,0,1,27.09,16.55,130.31,130.31,0,0,1,26.47,24.7A96.57,96.57,0,0,1,1286,584.29c7.28,14.87,10.7,32,12.57,49.45.25,2.3.47,4.62.66,6.94.32,3.68.59,7.35.81,11A447.81,447.81,0,0,1,1300.57,700.51ZM1043.23,348.78C1053.61,403.4,1092,442,1128.93,435s58.48-57,48.1-111.62-48.76-93.22-85.7-86.19S1032.85,294.15,1043.23,348.78ZM554.83,170.64c36-16.24,57.12-47.43,47.1-69.66S554.57,73.9,518.54,90.14s-57.12,47.43-47.1,69.66S518.8,186.88,554.83,170.64Zm509.54,28c16-7,22.32-28.06,14-47.09s-28-28.8-44-21.82-22.33,28.06-14.05,47.09S1048.33,205.58,1064.37,198.61ZM137.91,481.41c14.84,9.24,35.77,2.46,46.74-15.16s7.83-39.39-7-48.63-35.77-2.46-46.74,15.15S123.06,472.16,137.91,481.41Z"></path>
  <circle cx="757.32" cy="449.51" r="242" fill="url(#brandSun)"></circle>
  <path fill="#7fbcd8" d="M1321.47,826H59.14A2018.15,2018.15,0,0,1,304.68,687.67c168.49-79.53,344.44-241.44,369.58-273.62s36-37.88,44.16-33.15,15.62-1.42,27.84-7.57,27.87-.94,28.21,4.73,15.27-2.37,20,.95,139,183.73,306.39,270.79C1197.18,699.88,1280.64,782,1321.47,826Z"></path>
  <path fill="#fbfffe" d="M266.09,706.45h0s62.15-6.15,126.46-42.76,100.32-58.71,103-58.39S453,645.7,453,645.7s46.31-17.14,62.62-32.32,78.12-53.06,81.18-54c0,0-13.93,18.46-23.1,28.4s-18.68,10-35.32,25.6-37,23.16-37,23.16,23.61-6.15,29.21-9.94,13.59-8.76,13.59-8.76-16.3,16.81-20.38,23.2c0,0,16.81-14,24.46-17s29-26.28,29-26.28l-8,17.76s17-4.74,21.91-9c0,0-10.19,15.39-18.35,21.54,0,0,24.63-9.94,36.52-24.14,0,0,.68,21.78-13.93,48.76S550.62,718,550.62,718s24.11-15.62,49.59-56.81S630.78,600.56,641,592,661,576,661,576s6.79,18.93-3.4,43.55-18.68,52.55-29.55,67.22c0,0,25.82-24.14,42.46-33.13s35.67-22.66,64.2-40.21,63.18-28.44,72-36c7.51-6.44,3.73-25.87,2.42-31.55A29.82,29.82,0,0,0,828.81,566c17.32,5.68,23.44,17.51,36,27s21.4,20.36,30.23,34.56c0,0-6.63-22.72-17-29.35s-11.21-17.05-10.36-18,10.36,7.1,13.42,6.15,6.11-2.84,12.57,4.26,12.23,18,18.51,17.28,18.34,19.65,18.34,19.65-8.15-19.17-14.26-24.15S910,592.52,910,592.52s12.91,9.7,22.59,15.86,13.08,5.91,21.06,14.67a34.66,34.66,0,0,0,18.17,10.42s-9.68-10.66-12.56-18.94-1.19-14.2-1.19-19.41S948,576,948.55,576s12.23,15.38,21.74,22.72,15.45,3.08,18.34,1.18,15.12,2.13,31.93,17.28,28.89,17.52,41.78,18c11.33.42,26.62,8.31,30.16,10.22C929,556.74,799.18,382.27,794.5,379s-19.7,4.73-20-.95-16-10.89-28.19-4.73-19.7,12.31-27.86,7.57-19,1-44.15,33.14S473.17,608.14,304.69,687.67Q284.93,697,266.09,706.45Z"></path>
  <rect width="92.36" height="7.36" x="137.12" y="736.32" fill="#380705"></rect>
  <rect width="23.48" height="112.92" x="131.25" y="713.51" fill="#ec2b1c"></rect>
  <rect width="11.74" height="111.09" x="142.99" y="715.34" fill="#d30707"></rect>
  <polygon fill="#380705" points="142.99 706.16 163.6 714.95 163.6 719.79 122.38 719.79 122.38 714.95 142.99 706.16"></polygon>
  <rect width="92.36" height="7.36" x="349.33" y="736.32" fill="#380705"></rect>
  <rect width="23.48" height="112.92" x="424.08" y="713.51" fill="#ec2b1c"></rect>
  <rect width="11.74" height="111.09" x="424.08" y="715.34" fill="#d30707"></rect>
  <polygon fill="#380705" points="435.82 706.16 415.21 714.95 415.21 719.79 456.43 719.79 456.43 714.95 435.82 706.16"></polygon>
  <polygon fill="#ec2b1c" points="366.1 533.58 380.68 785.42 358.94 785.42 351.53 533.58 366.1 533.58"></polygon>
  <polygon fill="#ec2b1c" points="211.48 533.58 196.9 785.42 218.64 785.42 226.05 533.58 211.48 533.58"></polygon>
  <path fill="#ec2b1c" d="M289.4,520.28C195.37,520,151,515,151,515s0,.44.18,1.17c.41,2.13,1.64,6.75,5,9.9a4.45,4.45,0,0,0,1.81.7c14.78,3.48,108.85,3.91,131.36,4s116.59-.47,131.37-4a4.52,4.52,0,0,0,1.81-.7c3.41-3.15,4.64-7.77,5.05-9.9.14-.73.18-1.17.18-1.17S383.44,520,289.4,520.28Z"></path>
  <path fill="#380705" d="M456.42,496.73s-44.26,10.83-167,11c-122.75-.14-167-11-167-11s-1.21,10.78,18.49,17.48a60.08,60.08,0,0,0,10.3,2C183.6,520.33,268.26,521,289.4,521c21.15-.09,105.81-.71,138.23-4.85a60.08,60.08,0,0,0,10.3-2C457.63,507.51,456.42,496.73,456.42,496.73Z"></path>
  <rect width="17.67" height="38" x="280.57" y="511.75" fill="#380705"></rect>
</svg>
