<svg xmlns="http://www.w3.org/2000/svg" xml:space="preserve" viewBox="0 0 256 256" id="apartments">
  <path fill="#F59187" d="M255 128C255 57.9 198.1 1 128 1S1 57.9 1 128c0 29.2 9.9 56.1 26.4 77.6h201.1c16.6-21.5 26.5-48.4 26.5-77.6z"></path>
  <path fill="#CA6762" d="M27.4 205.6C50.7 235.6 87.1 255 128 255s77.3-19.4 100.6-49.4H27.4z"></path>
  <path fill="#B2A493" d="M40.6 61.5h58.5v144H40.6z"></path>
  <path fill="#DDDAD7" d="M156.9 92.3h58.5v113.2h-58.5z"></path>
  <path fill="#897959" d="M98.3 34.4h58.5v171.1H98.3z"></path>
  <g fill="#DDDAD7">
    <path d="M48.5 66.9h5v115.7h-5zM61.1 66.9h5v115.7h-5zM73.6 66.9h5v115.7h-5zM86.1 66.9h5v115.7h-5z"></path>
  </g>
  <g fill="#AF9F87">
    <path d="M104 41h11.5v14.8H104zM121.9 41h11.5v14.8h-11.5zM139.7 41h11.5v14.8h-11.5z"></path>
  </g>
  <g fill="#AF9F87">
    <path d="M104 61.8h11.5v14.8H104zM121.9 61.8h11.5v14.8h-11.5zM139.7 61.8h11.5v14.8h-11.5z"></path>
  </g>
  <g fill="#AF9F87">
    <path d="M104 82.6h11.5v14.8H104zM121.9 82.6h11.5v14.8h-11.5zM139.7 82.6h11.5v14.8h-11.5z"></path>
  </g>
  <g fill="#AF9F87">
    <path d="M104 103.4h11.5v14.8H104zM121.9 103.4h11.5v14.8h-11.5zM139.7 103.4h11.5v14.8h-11.5z"></path>
  </g>
  <g fill="#AF9F87">
    <path d="M104 124.1h11.5v14.8H104zM121.9 124.1h11.5v14.8h-11.5zM139.7 124.1h11.5v14.8h-11.5z"></path>
  </g>
  <g fill="#AF9F87">
    <path d="M104 144.9h11.5v14.8H104zM121.9 144.9h11.5v14.8h-11.5zM139.7 144.9h11.5v14.8h-11.5z"></path>
  </g>
  <g fill="#AF9F87">
    <path d="M104 165.7h11.5v14.8H104zM121.9 165.7h11.5v14.8h-11.5zM139.7 165.7h11.5v14.8h-11.5z"></path>
  </g>
  <g fill="#AF9F87">
    <path d="M163.9 99.5h44.4v5.1h-44.4zM163.9 112.1h44.4v5.1h-44.4zM163.9 124.8h44.4v5.1h-44.4zM163.9 137.4h44.4v5.1h-44.4zM163.9 150.1h44.4v5.1h-44.4zM163.9 162.7h44.4v5.1h-44.4zM163.9 175.4h44.4v5.1h-44.4z"></path>
  </g>
  <path fill="#50432B" d="M117.3 188.8h20.6v16.8h-20.6z"></path>
</svg>
