<svg xmlns="http://www.w3.org/2000/svg" id="Layer_1" viewBox="0 0 48 48">
  <rect width="8" height="8" x="10" y="36" rx="2" ry="2" style="fill:#555e77"/>
  <path d="M18,41.31v.69c0,1.1-.9,2-2,2h-4c-1.1,0-2-.9-2-2v-.69c.36.42.9.69,1.5.69h5c.6,0,1.14-.27,1.5-.69Z" style="fill:#424c63"/>
  <rect width="8" height="8" x="30" y="36" rx="2" ry="2" style="fill:#555e77"/>
  <path d="M38,41.31v.69c0,1.1-.9,2-2,2h-4c-1.1,0-2-.9-2-2v-.69c.36.42.9.69,1.5.69h5c.6,0,1.14-.27,1.5-.69Z" style="fill:#424c63"/>
  <rect width="40" height="8" x="4" y="14" rx="2" ry="2" style="fill:#0588e2"/>
  <path d="M44,19.31v.69c0,1.1-.9,2-2,2H6c-1.1,0-2-.9-2-2v-.69c.36.42.9.69,1.5.69h37c.6,0,1.14-.27,1.5-.69Z" style="fill:#0075d3"/>
  <rect width="32" height="36" x="8" y="4" rx="4" ry="4" style="fill:#0ca0f2"/>
  <path d="M39.93,36.72c-.34,1.87-1.97,3.28-3.93,3.28H12c-1.96,0-3.59-1.41-3.93-3.28.73.79,1.77,1.28,2.93,1.28h26c1.16,0,2.2-.49,2.93-1.28Z" style="fill:#0588e2"/>
  <path d="M28,8h-8c-.553,0-1-.448-1-1s.447-1,1-1h8c.553,0,1,.448,1,1s-.447,1-1,1Z" style="fill:#0075d3"/>
  <rect width="14" height="2" x="17" y="34" rx="1" ry="1" style="fill:#eff3f9"/>
  <circle cx="12" cy="35" r="1.5" style="fill:#eff3f9"/>
  <circle cx="36" cy="35" r="1.5" style="fill:#eff3f9"/>
  <path d="M38,12v10.894c0,1.003-.501,1.94-1.336,2.496h0c-1.085.723-2.36,1.109-3.664,1.109H15c-1.304,0-2.579-.386-3.664-1.109h0c-.835-.556-1.336-1.493-1.336-2.496v-10.894c0-1.105.895-2,2-2h24c1.105,0,2,.895,2,2Z" style="fill:#eff3f9"/>
  <path d="m10.809 10.402 9.294 16.098h9.238l-9.526-16.5h-7.814c-.448 0-.858.153-1.191.402ZM27.897 10h-4.619l9.526 16.5h.195c1.304 0 2.579-.386 3.664-1.109.029-.02.051-.048.079-.068l-8.846-15.322Z" style="fill:#fff"/>
</svg>
