<svg xmlns="http://www.w3.org/2000/svg" id="Layer_1" viewBox="0 0 48 48">
  <path d="M24,18c-.552,0-1-.448-1-1V7c0-.552.448-1,1-1s1,.448,1,1v10c0,.552-.448,1-1,1Z" style="fill:#7d99bc"/>
  <path d="M3.999,11.053c-.477,0-.898-.341-.984-.826-.096-.544.267-1.062.811-1.159L43.826,2.015c.547-.095,1.063.268,1.159.811.096.544-.267,1.062-.811,1.159L4.174,11.038c-.059.01-.117.015-.175.015Z" style="fill:#7d99bc"/>
  <rect width="16" height="4" x="16" y="4.526" rx="1" ry="1" style="fill:#b6cae5" transform="rotate(-10 24.002 6.528)"/>
  <rect width="12" height="6" x="18" y="15" rx="2" ry="2" style="fill:#d82b50"/>
  <path d="M42,32c0,4.738-1.491,9.126-4.035,12.714-.569.802-1.488,1.286-2.471,1.286H12.506c-.984,0-1.902-.484-2.471-1.286-2.544-3.588-4.035-7.976-4.035-12.714s1.491-9.126,4.035-12.714c.569-.802,1.488-1.286,2.471-1.286h22.988c.984,0,1.902.484,2.471,1.286,2.544,3.588,4.035,7.976,4.035,12.714Z" style="fill:#ff3b65"/>
  <path d="M38.57,43.8c-.19.31-.39.61-.6.91-.57.81-1.49,1.29-2.48,1.29H12.51c-.99,0-1.91-.48-2.48-1.29-.21-.3-.41-.6-.6-.91.34.13.71.2,1.08.2h26.98c.37,0,.74-.07,1.08-.2Z" style="opacity:.75;fill:#d82b50"/>
  <path d="M17 22v8c0 .552-.448 1-1 1h-6.157c-.447 0-.796-.366-.753-.811.294-3.087 1.333-6.061 3.032-8.638.23-.348.626-.551 1.043-.551.748 0 1.972 0 2.836 0 .552 0 .999.448.999 1ZM34.835 21c-.748 0-1.972 0-2.836 0-.552 0-.999.448-.999 1v8c0 .552.448 1 1 1h6.157c.447 0 .796-.366.753-.811-.294-3.087-1.333-6.061-3.032-8.638-.23-.348-.626-.551-1.043-.551Z" style="fill:#eff3f9"/>
  <rect width="10" height="10" x="19" y="21" rx="1" ry="1" style="fill:#eff3f9"/>
  <path d="M20.536 21h-.536c-.552 0-1 .448-1 1v8c0 .552.448 1 1 1h6.309l-5.774-10ZM16.812 30.551c.109-.16.188-.343.188-.551v-8c0-.552-.447-1-.999-1-.864 0-2.087 0-2.836 0-.417 0-.813.203-1.043.551-.092.139-.174.283-.261.424l4.951 8.576ZM28 21h-2.845l3.845 6.66v-5.66c0-.552-.448-1-1-1ZM31.187 21.449c-.109.16-.187.343-.187.551v8c0 .552.448 1 1 1h4.702l-5.514-9.551Z" style="fill:#fff"/>
</svg>
