<svg xmlns="http://www.w3.org/2000/svg" viewBox="0 0 48 48"><path fill="#1761b2" d="M42,11h-6.058c-.608,0-1.182-.276-1.562-.751l-2.199-2.748c-.759-.949-1.908-1.501-3.123-1.501h-10.117c-1.215,0-2.365.553-3.124,1.502l-2.197,2.747c-.38.475-.954.751-1.562.751h-6.058c-2.209,0-4,1.791-4,4v23c0,2.209,1.791,4,4,4h36c2.209,0,4-1.791,4-4V15c0-2.209-1.791-4-4-4Z"/><path fill="#0d3b8d" d="M44,39H4c-.713,0-1.373-.202-1.953-.529.236,1.984,1.905,3.529,3.953,3.529h36c2.048,0,3.717-1.545,3.953-3.529-.58.327-1.239.529-1.953.529Z" opacity=".5"/><rect width="44" height="14" x="2" y="19" fill="#0d3b8d"/><path fill="#0d3b8d" d="M10,16h-3c-.553,0-1-.448-1-1s.447-1,1-1h3c.553,0,1,.448,1,1s-.447,1-1,1Z" opacity=".5"/><circle cx="41" cy="15" r="1" fill="#ff3b65"/><circle cx="24" cy="26" r="12" fill="#00286f"/><circle cx="24" cy="26" r="9" fill="#cfe0f3"/><circle cx="24" cy="26" r="7" fill="#20aee1"/><circle cx="24" cy="26" r="3" fill="#47caf0"/><circle cx="26" cy="24" r="2" fill="#6ee7ff" opacity=".5"/></svg>