<svg xmlns="http://www.w3.org/2000/svg" id="Layer_1" viewBox="0 0 48 48">
  <rect width="9" height="8" x="4" y="33" rx="2" ry="2" style="fill:#424c63"/>
  <path d="M13,38.31v.69c0,1.1-.9,2-2,2h-5c-1.1,0-2-.9-2-2v-.69c.36.42.9.69,1.5.69h6c.6,0,1.14-.27,1.5-.69Z" style="fill:#333e54"/>
  <rect width="9" height="8" x="35" y="33" rx="2" ry="2" style="fill:#424c63"/>
  <path d="M44,38.31v.69c0,1.1-.9,2-2,2h-5c-1.1,0-2-.9-2-2v-.69c.36.42.9.69,1.5.69h6c.6,0,1.14-.27,1.5-.69Z" style="fill:#333e54"/>
  <rect width="43" height="3" x="2.5" y="17" rx="1.5" ry="1.5" style="fill:#0588e2"/>
  <path d="M48,27v5c0,2.209-1.791,4-4,4H4c-2.209,0-4-1.791-4-4v-5c0-2.37,1.378-4.419,3.375-5.393,1.432-.698,2.58-1.862,3.062-3.381.64-2.015,1.514-4.77,2.236-7.046.791-2.492,3.103-4.18,5.717-4.18h19.219c2.614,0,4.928,1.693,5.719,4.185l2.234,7.038c.482,1.519,1.631,2.686,3.063,3.384,1.997.974,3.375,3.023,3.375,5.393Z" style="fill:#1db4ff"/>
  <path d="M47.93,32.72c-.34,1.87-1.97,3.28-3.93,3.28H4c-1.96,0-3.59-1.41-3.93-3.28.73.79,1.77,1.28,2.93,1.28h42c1.16,0,2.2-.49,2.93-1.28Z" style="fill:#0ca0f2"/>
  <rect width="5" height="5" x="40" y="27" rx="1.5" ry="1.5" style="fill:#eff3f9"/>
  <rect width="18" height="4" x="15" y="27.5" rx="1" ry="1" style="fill:#eff3f9"/>
  <rect width="5" height="5" x="3" y="27" rx="1.5" ry="1.5" style="fill:#eff3f9"/>
  <path d="M33.609,10H14.391c-1.307,0-2.464.846-2.859,2.092l-1.672,5.266c-.286.902.322,1.852,1.263,1.953,4.231.453,8.526.689,12.877.689s8.646-.236,12.877-.689c.941-.101,1.55-1.05,1.263-1.953l-1.672-5.266c-.396-1.246-1.552-2.092-2.859-2.092Z" style="fill:#eff3f9"/>
  <path d="M21.113 10h-6.723c-.427 0-.834.098-1.208.263l5.549 9.611c1.747.077 3.502.125 5.269.125.958 0 1.912-.016 2.864-.039l-5.751-9.961ZM29.196 10h-4.619l5.678 9.835c1.486-.077 2.964-.188 4.435-.318l-5.494-9.516Z" style="fill:#fff"/>
</svg>
