<svg xmlns="http://www.w3.org/2000/svg" viewBox="0 0 48 48"><path fill="#9eb6d8" d="M24,10c-2.757,0-5-2.243-5-5S21.243,0,24,0s5,2.243,5,5-2.243,5-5,5ZM24,2c-1.654,0-3,1.346-3,3s1.346,3,3,3,3-1.346,3-3-1.346-3-3-3Z"/><path fill="#b6cae5" d="M19,5c0,.667.137,1.302.375,1.884.363.076.74.116,1.125.116.403,0,.795-.046,1.174-.129-.415-.515-.674-1.16-.674-1.871,0-1.654,1.346-3,3-3,.711,0,1.357.259,1.871.674.082-.379.129-.771.129-1.174,0-.386-.041-.762-.116-1.125-.582-.238-1.217-.375-1.884-.375-2.757,0-5,2.243-5,5Z"/><rect width="3" height="7" x="22.5" y="7" fill="#0d3b8d" rx="1.5" ry="1.5"/><circle cx="24" cy="29" r="19" fill="#1761b2"/><path fill="#0d3b8d" d="M35.843,14.157c2.596,3.249,4.157,7.361,4.157,11.843,0,10.493-8.507,19-19,19-4.482,0-8.594-1.561-11.843-4.157,3.482,4.358,8.831,7.157,14.843,7.157,10.493,0,19-8.507,19-19,0-6.011-2.799-11.361-7.157-14.843Z"/><circle cx="24" cy="29" r="16" fill="#eff3f9"/><path fill="#cfe0f3" d="M10,31c0-8.837,7.163-16,16-16,3.909,0,7.487,1.406,10.266,3.734-2.935-3.503-7.338-5.734-12.266-5.734-8.837,0-16,7.163-16,16,0,4.928,2.231,9.331,5.734,12.266-2.328-2.779-3.734-6.357-3.734-10.266Z"/><path fill="#9eb6d8" d="M24 13c-.338 0-.668.03-1 .05v2.95c0 .552.448 1 1 1s1-.448 1-1v-2.95c-.332-.021-.662-.05-1-.05zM24 45c-.338 0-.668-.03-1-.05v-2.95c0-.552.448-1 1-1s1 .448 1 1v2.95c-.332.021-.662.05-1 .05zM40 29c0-.338-.03-.668-.05-1h-2.95c-.552 0-1 .448-1 1s.448 1 1 1h2.95c.021-.332.05-.662.05-1zM8 29c0-.338.03-.668.05-1h2.95c.552 0 1 .448 1 1s-.448 1-1 1h-2.95c-.021-.332-.05-.662-.05-1z"/><path fill="#829ebf" d="M25 13.05v1.98c-.68.04-1.35.13-2 .25v-2.23c.33-.02.66-.05 1-.05s.67.03 1 .05zM10.28 28c-.12.65-.21 1.32-.25 2h-1.98c-.02-.33-.05-.66-.05-1s.03-.67.05-1h2.23z"/><path fill="#ff3b65" d="M32.22,20.093l-9.797,6.013c-.536.329-.988.78-1.317,1.317l-6.013,9.797c-.275.448.239.963.688.688l9.797-6.013c.536-.329.988-.78,1.317-1.317l6.013-9.797c.275-.448-.239-.963-.688-.688Z"/><path fill="#d82b50" d="M25.239,29.296c-.297.332-.612.647-.943.943l-8.619,7.71c.034-.012.069-.02.103-.041l9.797-6.013c.536-.329.988-.78,1.317-1.317l6.013-9.797c.021-.034.029-.069.041-.103l-7.71,8.619Z"/><path fill="#0ca0f2" d="M21.686,26.686c-.221.221-.416.468-.581.736l-6.013,9.797c-.275.448.239.963.688.688l9.797-6.013c.268-.165.515-.36.736-.581l-4.627-4.628Z"/><path fill="#0075d3" d="M24.296,30.239l-8.619,7.71c.034-.012.069-.02.103-.041l9.797-6.013c.268-.165.515-.36.736-.581l-1.546-1.546c-.157.157-.306.323-.472.472Z"/><circle cx="24" cy="29" r="1" fill="#eff3f9"/></svg>