<svg xmlns="http://www.w3.org/2000/svg" viewBox="0 0 48 48"><rect width="27" height="4" x="7.423" y="39.139" fill="#9a4c29" rx="2" ry="2" transform="rotate(-25 20.923 41.14)"/><path fill="#b5633a" d="M16.902 40.808l-7.246 3.379c-.669.312-1.076.948-1.139 1.634.566.393 1.315.49 1.984.178l7.796-3.635c.385-.179.385-.727 0-.906l-1.394-.65zM30.5 34.467l-8.867 4.135 2.366 1.103 7.346-3.425c.669-.312 1.076-.948 1.139-1.634-.566-.393-1.315-.49-1.984-.178z"/><path fill="#ff6500" d="M40,22.288c0,7.654-7.519,15.573-17.643,14.636-8.753-.81-15.04-8.454-14.298-16.507.729-7.916,5.893-13.418,7.773-15.178.276-.259.723-.134.823.229.208.754.723,1.922,1.994,3.089,0,0,2.928-2.69,3.185-8.071.017-.364.393-.596.721-.433,1.91.952,7.17,4.09,8.905,10.466,0,0,1.626-1.493,2.04-3.829.075-.42.591-.575.871-.251,1.706,1.966,5.629,7.406,5.629,15.849Z"/><path fill="#ff8200" d="M32.331,14.78c-.609.57-1.346.502-1.724-.016-1.935-2.656-4.172-6.366-5.39-8.061-.226-.314-.688-.25-.854.1-1.133,2.386-2.858,4.282-4.85,5.973-.189.16-.388.322-.626.386-.318.085-.663-.022-.935-.209-.612-.42-1.155-1.095-1.701-1.603-.23-.214-.57-.189-.754.066-4.667,6.476-4.685,17.718,3.115,21.791,6.283,3.281,14.786.089,16.719-6.982,1.038-3.796.454-8.779-1.014-12.389-.131-.323-.548-.404-.802-.167l-1.184,1.109Z"/><path fill="#ffa221" d="M17,25.378c0,3.657,3.134,6.622,7,6.622s7-2.965,7-6.622c0-5.04-3.177-8.052-4.842-9.283-.333-.246-.799.022-.743.431.165,1.209.099,3.205-1.613,4.784-.084.077-.195.128-.309.129-.498.005-1.896-.259-2.923-3.153-.131-.368-.478-.442-.763-.173-.956.9-2.807,3.172-2.807,7.266Z"/><rect width="4" height="27" x="25.077" y="27.639" fill="#9a4c29" rx="2" ry="2" transform="rotate(-65 27.077 41.14)"/><path fill="#b5633a" d="M38.345,44.187l-20.845-9.72c-.669-.312-1.418-.215-1.984.178.062.686.469,1.322,1.139,1.634l20.845,9.72c.669.312,1.418.215,1.984-.178-.062-.686-.469-1.322-1.139-1.634Z"/></svg>