<svg xmlns="http://www.w3.org/2000/svg" viewBox="0 0 48 48"><path fill="#cfe0f3" d="M31.001,45c-.354,0-.709-.037-1.054-.112l-12.317-2.639c-.413-.09-.847-.091-1.256,0l-10.745,2.301c-.891,.192-1.807-.025-2.515-.597s-1.114-1.421-1.114-2.331V18.667c0-1.427,.974-2.635,2.368-2.937l11.583-2.481c.685-.149,1.412-.148,2.103,0l12.316,2.639c.413,.091,.847,.091,1.256,0l10.745-2.301c.889-.192,1.807,.026,2.515,.597,.708,.571,1.114,1.421,1.114,2.332v22.953c0,1.426-.974,2.634-2.367,2.937l-11.584,2.481c-.342,.074-.694,.111-1.048,.111Z"/><path fill="#eff3f9" d="M32,15.81l-.374,.08c-.409,.09-.843,.09-1.256,0l-12.316-2.639c-.674-.146-1.383-.145-2.054-.006v29.083l.374-.08c.409-.09,.843-.089,1.256,0l12.317,2.639c.345,.075,.699,.112,1.054,.112,.337,0,.672-.039,.999-.106V15.81Z"/><path fill="#00d18d" d="M31.001,42c-.143,0-.282-.015-.414-.043l-12.328-2.642c-.405-.088-.834-.135-1.262-.135s-.855,.046-1.27,.138l-9.517,2.038c-.622,.133-1.209-.341-1.209-.978V19.475c0-.471,.328-.879,.789-.978l10.789-2.315c.142-.031,.277-.045,.418-.045,.143,0,.285,.015,.422,.045l12.322,2.64c.402,.088,.831,.135,1.26,.135s.854-.046,1.269-.137l9.52-2.038c.622-.133,1.209,.341,1.209,.978v20.903c0,.471-.328,.879-.789,.978l-10.789,2.315c-.14,.03-.278,.045-.42,.045Z"/><path fill="#05e594" d="M32,18.864c-.329,.056-.663,.093-.999,.093-.429,0-.857-.046-1.26-.135l-12.322-2.64c-.137-.03-.279-.045-.422-.045-.141,0-.276,.015-.418,.045l-.579,.124v22.966c.328-.056,.661-.093,.997-.093,.428,0,.856,.046,1.262,.135l12.328,2.642c.132,.029,.271,.043,.414,.043,.142,0,.28-.015,.42-.045l.579-.124V18.864Z"/><ellipse cx="24" cy="36" fill="#00d18d" rx="7" ry="2"/><path fill="#d82b50" d="M24,3c-6.065,0-11,4.935-11,11,0,9.278,7.986,17,11,17,2.695,0,11-7.649,11-17,0-6.065-4.935-11-11-11Zm0,15c-2.209,0-4-1.791-4-4s1.791-4,4-4,4,1.791,4,4-1.791,4-4,4Z"/><path fill="#c42254" d="M26.5,25c-7.012,0-12.772-5.347-13.434-12.185-.042,.39-.066,.785-.066,1.185,0,9.278,7.986,17,11,17,1.643,0,5.366-2.852,8.027-7.192-1.688,.759-3.555,1.192-5.527,1.192Z"/></svg>