<svg xmlns="http://www.w3.org/2000/svg" viewBox="0 0 48 48"><path fill="#cfe0f3" d="M34,18h-2c-.552,0-1,.448-1,1v2c0,1.105.895,2,2,2h0c1.105,0,2-.895,2-2v-2c0-.552-.448-1-1-1Z"/><path fill="#b6cae5" d="M34,18h-1.153c.089.149.153.314.153.5v3c0,.548-.221,1.044-.578,1.405.184.056.376.095.578.095,1.105,0,2-.895,2-2v-2c0-.552-.448-1-1-1Z"/><path fill="#cfe0f3" d="M40,19.5h-2c-.552,0-1,.448-1,1v2c0,1.105.895,2,2,2h0c1.105,0,2-.895,2-2v-2c0-.552-.448-1-1-1Z"/><path fill="#b6cae5" d="M40,19.5h-1.153c.089.149.153.314.153.5v3c0,.548-.221,1.044-.578,1.405.184.056.376.095.578.095,1.105,0,2-.895,2-2v-2c0-.552-.448-1-1-1Z"/><path fill="#cfe0f3" d="M14,18h2c.552,0,1,.448,1,1v2c0,1.105-.895,2-2,2h0c-1.105,0-2-.895-2-2v-2c0-.552.448-1,1-1Z"/><path fill="#b6cae5" d="M16,18h-1.153c.089.149.153.314.153.5v3c0,.548-.221,1.044-.578,1.405.184.056.376.095.578.095,1.105,0,2-.895,2-2v-2c0-.552-.448-1-1-1Z"/><path fill="#cfe0f3" d="M8,19.5h2c.552,0,1,.448,1,1v2c0,1.105-.895,2-2,2h0c-1.105,0-2-.895-2-2v-2c0-.552.448-1,1-1Z"/><path fill="#b6cae5" d="M10,19.5h-1.153c.089.149.153.314.153.5v3c0,.548-.221,1.044-.578,1.405.184.056.376.095.578.095,1.105,0,2-.895,2-2v-2c0-.552-.448-1-1-1Z"/><path fill="#eff3f9" d="M43.549,22.586l-19.549-5.586-19.549,5.586c-.859.245-1.451,1.03-1.451,1.923v1.392c0,.59.508,1.051,1.095.995l19.905-1.896,19.905,1.896c.587.056,1.095-.406,1.095-.995v-1.392c0-.893-.592-1.678-1.451-1.923Z"/><polygon fill="#cfe0f3" points="30 25.571 30 18.714 24 17 24 25 30 25.571"/><path fill="#47caf0" d="M3,25.5v.4c0,.59.508,1.051,1.095.995l19.905-1.896,19.905,1.896c.587.056,1.095-.406,1.095-.995v-.4l-21-2.5-21,2.5Z"/><polygon fill="#20aee1" points="30 25.571 30 23.714 24 23 24 25 30 25.571"/><path fill="#eff3f9" d="M33.371,41.249l-9.371-3.749-9.371,3.749c-.38.152-.629.52-.629.928v1.218c0,.592.511,1.054,1.1.995l8.9-.89,8.9.89c.589.059,1.1-.403,1.1-.995v-1.218c0-.409-.249-.777-.629-.928Z"/><path fill="#cfe0f3" d="M27.647,43.865c.585-1.417,1.059-2.864,1.426-4.335l-5.073-2.029v6l3.647.365Z"/><path fill="#47caf0" d="M24,41.5l-9.978,1.996c.057.539.525.95,1.078.894l8.901-.89,8.901.89c.553.055,1.021-.355,1.078-.894l-9.978-1.996Z"/><path fill="#20aee1" d="M27.647,43.865c.207-.503.401-1.009.581-1.519l-4.228-.846v2l3.647.365Z"/><path fill="#eff3f9" d="M20,32.016V10.702c0-2.527.86-4.978,2.438-6.951h0c.801-1.001,2.323-1.001,3.123,0h0c1.578,1.973,2.438,4.424,2.438,6.951v21.314c0,4.178-.899,8.307-2.636,12.108h0c-.534,1.169-2.194,1.169-2.729,0h0c-1.737-3.8-2.636-7.929-2.636-12.108Z"/><path fill="#cfe0f3" d="M25.562,3.751c-.17-.212-.377-.37-.598-.492.68,2.084,1.039,4.265,1.042,6.47l.026,25.683c.004,3.067-.317,6.12-.94,9.115.107-.115.201-.247.273-.403,1.737-3.8,2.636-7.929,2.636-12.108V10.702c0-2.527-.86-4.978-2.438-6.951Z"/><path fill="#9eb6d8" d="M25.251,9.141c-.062,0-.126-.006-.189-.018-.723-.139-1.4-.139-2.123,0-.541.107-1.066-.251-1.17-.793-.104-.542.251-1.066.793-1.17.97-.187,1.907-.187,2.877,0,.542.104.898.628.793,1.17-.092.479-.511.812-.981.812Z"/></svg>