<svg xmlns="http://www.w3.org/2000/svg" id="Layer_1" viewBox="0 0 48 48">
  <path d="M18,11c-.553,0-1-.448-1-1v-3c0-.552.447-1,1-1s1,.448,1,1v3c0,.552-.447,1-1,1Z" style="fill:#b6cae5"/>
  <path d="M15,14v-4c0-.552.448-1,1-1h7c.552,0,1,.448,1,1v4h-9Z" style="fill:#e2ebf6"/>
  <path d="M17.14,9c-.09.15-.14.32-.14.5v4.5h-2v-4c0-.55.45-1,1-1h1.14Z" style="opacity:.5;fill:#b6cae5"/>
  <path d="M33.183,19l-3.67-5.159c-.375-.527-.982-.841-1.63-.841h-15.609c-.67,0-1.259.445-1.443,1.09l-1.397,4.91h23.748Z" style="fill:#eff3f9"/>
  <path d="M13.226,13l-1.71,6h-2.08l1.4-4.91c.18-.65.77-1.09,1.44-1.09h.95Z" style="fill:#cfe0f3"/>
  <path d="M29,16.5h2.405l-1.423-2h-.982c-.552,0-1,.448-1,1h0c0,.552.448,1,1,1Z" style="fill:#b6cae5"/>
  <circle cx="26" cy="15.5" r="1" style="fill:#b6cae5"/>
  <circle cx="23" cy="15.5" r="1" style="fill:#b6cae5"/>
  <circle cx="20" cy="15.5" r="1" style="fill:#b6cae5"/>
  <circle cx="17" cy="15.5" r="1" style="fill:#b6cae5"/>
  <circle cx="14" cy="15.5" r="1" style="fill:#b6cae5"/>
  <path d="M4.215,25l1.682-5.91c.183-.645.772-1.09,1.443-1.09h27.861c.647,0,1.255.313,1.63.841l4.381,6.159H4.215Z" style="fill:#e2ebf6"/>
  <path d="M8.28,18l-1.98,7h-2.08l1.68-5.91c.18-.65.77-1.09,1.44-1.09h.94Z" style="opacity:.5;fill:#b6cae5"/>
  <path d="M36,22h3.077l-1.423-2h-1.655c-.552,0-1,.448-1,1h0c0,.552.448,1,1,1Z" style="fill:#9eb6d8;opacity:.75"/>
  <circle cx="33" cy="21" r="1" style="fill:#9eb6d8;opacity:.75"/>
  <circle cx="30" cy="21" r="1" style="fill:#9eb6d8;opacity:.75"/>
  <circle cx="27" cy="21" r="1" style="fill:#9eb6d8;opacity:.75"/>
  <circle cx="24" cy="21" r="1" style="fill:#9eb6d8;opacity:.75"/>
  <circle cx="21" cy="21" r="1" style="fill:#9eb6d8;opacity:.75"/>
  <circle cx="18" cy="21" r="1" style="fill:#9eb6d8;opacity:.75"/>
  <circle cx="15" cy="21" r="1" style="fill:#9eb6d8;opacity:.75"/>
  <circle cx="12" cy="21" r="1" style="fill:#9eb6d8;opacity:.75"/>
  <circle cx="9" cy="21" r="1" style="fill:#9eb6d8;opacity:.75"/>
  <path d="M47.856,25.514l-6.3,10.514c-.361.603-1.013.972-1.716.972H6.069c-.818,0-1.554-.499-1.857-1.259L.072,25.371c-.262-.657.222-1.371.929-1.371h45.997c.777,0,1.257.847.858,1.514Z" style="fill:#eff3f9"/>
  <path d="M6.872,37h-.8c-.82,0-1.55-.5-1.86-1.26L.072,25.37c-.26-.66.22-1.37.93-1.37h.68l5.19,13Z" style="fill:#cfe0f3"/>
  <path d="M43.97,32l-2.41,4.03c-.36.6-1.02.97-1.72.97H6.07c-.82,0-1.55-.5-1.86-1.26l-1.49-3.74h41.25Z" style="fill:#cfe0f3"/>
  <path d="M6.87,37h-.8c-.82,0-1.55-.5-1.86-1.26l-1.49-3.74h2.15l2,5Z" style="fill:#b6cae5"/>
  <path d="M11,28h-4.5c-.553,0-1-.447-1-1s.447-1,1-1h4.5c.553,0,1,.447,1,1s-.447,1-1,1Z" style="fill:#cfe0f3"/>
  <path d="M48,35.16c0-.331-.312-.567-.63-.476-1.181.338-2.721.259-3.733-.239h0c-1.2-.59-3.164-.59-4.364,0h0c-1.2.59-3.164.59-4.364,0h0c-1.2-.59-3.164-.59-4.364,0h0c-1.2.59-3.164.59-4.364,0h0c-1.2-.59-3.164-.59-4.364,0h0c-1.2.59-3.164.59-4.364,0h0c-1.2-.59-3.164-.59-4.364,0h0c-1.2.59-3.164.59-4.364,0h0c-1.2-.59-3.164-.59-4.364,0h0c-1.012.498-2.552.577-3.733.239C.312,34.592,0,34.829,0,35.16v5.693c0,.448.293.854.726.968,1.168.307,2.653.219,3.637-.265h0c1.2-.59,3.164-.59,4.364,0h0c1.2.59,3.164.59,4.364,0h0c1.2-.59,3.164-.59,4.364,0h0c1.2.59,3.164.59,4.364,0h0c1.2-.59,3.164-.59,4.364,0h0c1.2.59,3.164.59,4.364,0h0c1.2-.59,3.164-.59,4.364,0h0c1.2.59,3.164.59,4.364,0h0c1.2-.59,3.164-.59,4.364,0h0c.985.484,2.47.573,3.637.265.434-.114.726-.52.726-.968v-5.693Z" style="fill:#1db4ff"/>
  <path d="M0,38c1.205.593,3.159.593,4.364,0h0c1.2-.59,3.164-.59,4.364,0h0c1.2.59,3.164.59,4.364,0h0c1.2-.59,3.164-.59,4.364,0h0c1.2.59,3.164.59,4.364,0h0c1.2-.59,3.164-.59,4.364,0h0c1.2.59,3.164.59,4.364,0h0c1.2-.59,3.164-.59,4.364,0h0c1.2.59,3.164.59,4.364,0h0c1.2-.59,3.164-.59,4.364,0h0c1.205.593,3.159.593,4.364,0v2.853c0,.448-.293.854-.726.968-1.168.307-2.653.219-3.637-.265h0c-1.2-.59-3.164-.59-4.364,0h0c-1.2.59-3.164.59-4.364,0h0c-1.2-.59-3.164-.59-4.364,0h0c-1.2.59-3.164.59-4.364,0h0c-1.2-.59-3.164-.59-4.364,0h0c-1.2.59-3.164.59-4.364,0h0c-1.2-.59-3.164-.59-4.364,0h0c-1.2.59-3.164.59-4.364,0h0c-1.2-.59-3.164-.59-4.364,0h0c-.985.484-2.47.573-3.637.265-.434-.114-.726-.52-.726-.968v-2.853Z" style="fill:#0ca0f2"/>
</svg>
