<svg xmlns="http://www.w3.org/2000/svg" id="Layer_1" viewBox="0 0 48 48">
  <path d="M45.854,19.429c.732,6.472-1.34,12.456-5.155,16.9-.373.434-.927.671-1.499.671H8.802c-.573,0-1.129-.237-1.502-.672-3.303-3.849-5.299-8.852-5.299-14.328C2,9.009,13.261-1.353,26.554.144c10.06,1.133,18.163,9.226,19.301,19.285Z" style="fill:#555e77"/>
  <path d="M44,22c0,5.98-2.62,11.34-6.78,15H10.78c-4.16-3.66-6.78-9.02-6.78-15C4,10.95,12.95,2,24,2s20,8.95,20,20Z" style="fill:#333e54"/>
  <path d="M38.073 47.819c-.453.317-1.076.207-1.393-.246l-9.751-13.926c-.317-.452-.207-1.076.246-1.393s1.076-.207 1.393.246l9.751 13.926c.317.452.207 1.076-.246 1.393ZM9.927 47.819c.453.317 1.076.207 1.393-.246l9.751-13.926c.317-.452.207-1.076-.246-1.393s-1.076-.207-1.393.246l-9.751 13.926c-.317.452-.207 1.076.246 1.393Z" style="fill:#7d99bc"/>
  <rect width="22" height="2" x="13" y="41" rx="1" ry="1" style="fill:#9eb6d8"/>
  <path d="M29,37h-10c-3.866,0-7-3.134-7-7V14c0-2.761,2.239-5,5-5h15c2.209,0,4,1.791,4,4v17c0,3.866-3.134,7-7,7Z" style="fill:#1db4ff"/>
  <path d="M29,37h-10c-3.866,0-7-3.134-7-7v-2h24v2c0,3.866-3.134,7-7,7Z" style="fill:#0ca0f2"/>
  <path d="M35.27,33.11c-1.14,2.31-3.52,3.89-6.27,3.89h-10c-2.75,0-5.13-1.58-6.27-3.89,1.25,1.18,2.92,1.89,4.77,1.89h13c1.85,0,3.52-.71,4.77-1.89Z" style="fill:#0588e2"/>
  <path d="M27,13h-6c-.553,0-1-.448-1-1s.447-1,1-1h6c.553,0,1,.448,1,1s-.447,1-1,1Z" style="fill:#0588e2;opacity:.6"/>
  <circle cx="16.5" cy="31.5" r="1.5" style="fill:#eff3f9"/>
  <circle cx="31.5" cy="31.5" r="1.5" style="fill:#eff3f9"/>
  <path d="M16 15h6c.552 0 1 .448 1 1v7c0 .552-.448 1-1 1h-6c-1.105 0-2-.895-2-2v-5c0-1.105.895-2 2-2ZM32 15h-6c-.552 0-1 .448-1 1v7c0 .552.448 1 1 1h6c1.105 0 2-.895 2-2v-5c0-1.105-.895-2-2-2Z" style="fill:#eff3f9"/>
  <path d="M28.908 15h-2.908c-.552 0-1 .448-1 1v.232l4.485 7.768h2.515c.669 0 1.258-.332 1.621-.836l-4.713-8.164ZM25 22.232v.768c0 .552.448 1 1 1h.021l-1.021-1.768ZM19.093 24h2.907c.552 0 1-.448 1-1v-4.232l-2.175-3.768h-4.825c-.669 0-1.258.332-1.621.836l4.713 8.164Z" style="fill:#fff"/>
</svg>
