<svg xmlns="http://www.w3.org/2000/svg" id="Layer_1" viewBox="0 0 48 48">
  <path d="M39.5 46.866c-.479.276-1.09.112-1.366-.366l-8.5-14.722c-.276-.478-.113-1.09.366-1.366s1.09-.112 1.366.366l8.5 14.722c.276.478.113 1.09-.366 1.366ZM8.5 46.866c.479.276 1.09.112 1.366-.366l8.5-14.722c.276-.478.113-1.09-.366-1.366s-1.09-.112-1.366.366l-8.5 14.722c-.276.478-.113 1.09.366 1.366Z" style="fill:#7d99bc"/>
  <rect width="27" height="2" x="10.5" y="41" rx="1" ry="1" style="fill:#9eb6d8"/>
  <path d="M32,37h-16c-4.418,0-8-3.582-8-8V7c0-3.314,2.686-6,6-6h20c3.314,0,6,2.686,6,6v22c0,4.418-3.582,8-8,8Z" style="fill:#1db4ff"/>
  <path d="M32,37h-16c-4.418,0-8-3.582-8-8v-4h32v4c0,4.418-3.582,8-8,8Z" style="fill:#0ca0f2"/>
  <path d="M39.06,32.75c-1.34,2.53-4,4.25-7.06,4.25h-16c-3.06,0-5.72-1.72-7.06-4.25,1.44,1.39,3.4,2.25,5.56,2.25h19c2.16,0,4.12-.86,5.56-2.25Z" style="fill:#0588e2"/>
  <path d="M28,6h-8c-.553,0-1-.448-1-1s.447-1,1-1h8c.553,0,1,.448,1,1s-.447,1-1,1Z" style="fill:#0588e2;opacity:.6"/>
  <circle cx="14" cy="30" r="2" style="fill:#eff3f9"/>
  <circle cx="34" cy="30" r="2" style="fill:#eff3f9"/>
  <path d="M37 10v8c0 1.105-.895 2-2 2h-9c-.552 0-1-.448-1-1v-10c0-.552.448-1 1-1h9c1.105 0 2 .895 2 2ZM22 8h-9c-1.105 0-2 .895-2 2v8c0 1.105.895 2 2 2h9c.552 0 1-.448 1-1v-10c0-.552-.448-1-1-1Z" style="fill:#eff3f9"/>
  <path d="M25.04 8.801c-.014.066-.04.128-.04.199v9.732l.697 1.207c.097.031.196.061.303.061h5.506l-6.466-11.199ZM31.506 8h-3.464l6.928 12h.03c1.105 0 2-.895 2-2v-.483l-5.494-9.517ZM23 15.268v-6.268c0-.552-.448-1-1-1h-3.196l4.196 7.268ZM15.34 8h-2.34c-1.105 0-2 .895-2 2v.483l5.494 9.517h5.506c.085 0 .161-.028.24-.048l-6.9-11.952Z" style="fill:#fff"/>
</svg>
