<svg xmlns="http://www.w3.org/2000/svg" viewBox="0 0 48 48"><path fill="#592725" d="M48,36v1c0,1.31-.84,2.43-2.02,2.83-.868.294-1.401-.83-1.98-.83-.39,0-.73.22-.89.55-.15.3-.49.45-.82.45h-.58c-.33,0-.67-.15-.82-.45-.16-.33-.5-.55-.89-.55s-.73.22-.89.55c-.15.3-.49.45-.82.45h-.58c-.33,0-.67-.15-.82-.45-.16-.33-.5-.55-.89-.55s-.73.22-.89.55c-.15.3-.49.45-.82.45h-.58c-.33,0-.67-.15-.82-.45-.16-.33-.5-.55-.89-.55s-.73.22-.89.55c-.15.3-.49.45-.82.45h-.58c-.33,0-.67-.15-.82-.45-.16-.33-.5-.55-.89-.55s-.73.22-.89.55c-.15.3-.49.45-.82.45h-.58c-.33,0-.67-.15-.82-.45-.16-.33-.5-.55-.89-.55s-.73.22-.89.55c-.15.3-.49.45-.82.45h-.31c-.64,0-1.27-.17-1.82-.51l-1.78-1.06c-.57-.34-1.2-.51-1.83-.51-.89,0-1.77.34-2.44.97-.71.67-1.61,1.11-2.58,1.11h-.8c-.35,0-.69-.16-.84-.46-.17-.32-.51-.54-.89-.54s-.72.22-.89.54c-.15.3-.49.46-.84.46h-1.54c-.35,0-.69-.16-.84-.46-.17-.32-.51-.54-.89-.54-.33,0-.63.17-.81.42-.27.38-.74.57-1.17.42-1.18-.41-2.02-1.52-2.02-2.84v-3c0-.55.45-1,1-1h12.84c2.04,0,4.08.3,6.01.95,2.04.7,4.17,1.05,6.31,1.05h20.84c.55,0,1,.45,1,1Z"/><path fill="#491d1d" d="M4,38v-4c0-.55.45-1,1-1H1c-.55,0-1,.45-1,1v3c0,1.32.84,2.43,2.02,2.84.43.15.9-.04,1.17-.42.18-.25.48-.42.81-.42.064,0,.124.015.185.026-.116-.32-.185-.664-.185-1.026Z"/><path fill="#9a4c29" d="M13.34,34c2.087,0,4.168.31,6.141.995,1.984.689,4.079,1.005,6.179,1.005h20.34c1.105,0,2-.895,2-2v-4.229c0-3.989-2.938-7.368-6.889-7.922l-3.124-.438c-6.388-.896-12.146-4.326-15.976-9.516l-2.275-3.083c-.451-.611-1.209-.914-1.957-.782l-14.127,2.493c-.956.169-1.652.999-1.652,1.97v2.867c0,2.37-.299,4.735-.962,7.01-.688,2.362-1.038,4.81-1.038,7.27v2.36c0,1.105.895,2,2,2h11.34Z"/><path fill="#7d3327" d="M4,33v-3.36c0-2.46.349-4.908,1.038-7.27.663-2.275.962-4.64.962-7.01v-3.867c0-.595.264-1.136.687-1.505l-3.034.535c-.956.169-1.652.999-1.652,1.97v2.867c0,2.37-.299,4.735-.962,7.01-.688,2.362-1.038,4.81-1.038,7.27v2.36c0,1.105.895,2,2,2h2.277c-.172-.295-.277-.634-.277-1Z"/><path fill="#7d3327" d="M34 31c4.843 0 8.794-3.848 8.982-8.646-.591-.237-1.215-.414-1.871-.506l-.111-.016v.167c0 3.859-3.141 7-7 7-2.823 0-5.531 1.198-7.431 3.287l-3.239 3.563c.773.09 1.55.15 2.33.15h.238l2.152-2.367c1.521-1.673 3.689-2.633 5.95-2.633zM13.068 30.127c-1.484-3.114-4.673-5.127-8.123-5.127H.434c-.12.663-.215 1.33-.284 2h4.795c2.684 0 5.163 1.565 6.318 3.988l1.436 3.012h.641c.536 0 1.072.022 1.605.064l-1.877-3.937z" opacity=".5"/><path fill="#592725" d="M4.434,25H.434c-.12.663-.215,1.33-.284,2h4c.068-.67.163-1.337.284-2Z" opacity=".5"/><circle cx="19.639" cy="15.11" r="2" fill="#7d3327"/><circle cx="24.22" cy="19.53" r="2" fill="#7d3327"/><circle cx="29.63" cy="22.91" r="2" fill="#7d3327"/><rect width="5.553" height="2" x="27.632" y="20.313" fill="#b5633a" rx="1" ry="1" transform="rotate(-63.991 30.41 21.314)"/><rect width="5.553" height="2" x="22.535" y="17.128" fill="#b5633a" rx="1" ry="1" transform="rotate(-52.09 25.312 18.128)"/><rect width="5.574" height="2" x="18.22" y="12.96" fill="#b5633a" rx="1" ry="1" transform="rotate(-40.073 21.007 13.96)"/></svg>