<svg xmlns="http://www.w3.org/2000/svg" viewBox="0 0 48 48"><path fill="#0ca0f2" d="M2,42.372c0,.413.256.776.637.936,1.108.464,2.443.693,3.763.693,1.584,0,3.19-.329,4.4-1s2.816-1,4.4-1,3.19.329,4.4,1,2.816,1,4.4,1,3.19-.329,4.4-1,2.816-1,4.4-1,3.19.329,4.4,1,2.816,1,4.4,1c1.32,0,2.655-.229,3.763-.693.381-.16.637-.522.637-.936v-20.238c0-.516-.503-.876-.991-.708-.798.276-1.938.519-3.29.364-1.154-.14-2.084-.527-2.754-.903-.612-.344-1.347-.322-1.954.031-3.06,1.777-7.045,1.36-9.672-1.258-3.12-3.13-3.12-8.191,0-11.321,1.332-1.332,3.005-2.093,4.738-2.291.522-.06.622-.749.14-.96-4.76-2.08-10.519-1.179-14.409,2.721-2.093,2.086-3.323,4.713-3.694,7.435-.517,3.793-3.786,6.713-7.614,6.756-.034,0-.068,0-.102,0-1.07,0-2.154-.151-3.118-.457-.638-.202-1.282.286-1.282.955v19.874Z"/><path fill="#0588e2" d="M2,42.372c0,.413.256.776.637.936,1.108.464,2.443.693,3.763.693,1.584,0,3.19-.329,4.4-1s2.816-1,4.4-1,3.19.329,4.4,1,2.816,1,4.4,1,3.19-.329,4.4-1,2.816-1,4.4-1,3.19.329,4.4,1,2.816,1,4.4,1c1.32,0,2.654-.229,3.763-.693.381-.16.637-.522.637-.936v-13.872c-1.21.671-2.816,1-4.4,1s-3.19-.329-4.4-1-2.816-1-4.4-1-3.19.329-4.4,1-2.816,1-4.4,1-3.19-.329-4.4-1-2.816-1-4.4-1-3.19.329-4.4,1-2.816,1-4.4,1-3.19-.329-4.4-1v13.872Z"/><path fill="#0075d3" d="M2,42.372c0,.413.256.776.637.936,1.108.464,2.443.693,3.763.693,1.584,0,3.19-.329,4.4-1s2.816-1,4.4-1,3.19.329,4.4,1,2.816,1,4.4,1,3.19-.329,4.4-1,2.816-1,4.4-1,3.19.329,4.4,1,2.816,1,4.4,1c1.32,0,2.654-.229,3.763-.693.381-.16.637-.522.637-.936v-6.622c-1.21.671-2.816,1-4.4,1s-3.19-.329-4.4-1-2.816-1-4.4-1-3.19.329-4.4,1-2.816,1-4.4,1-3.19-.329-4.4-1-2.816-1-4.4-1-3.19.329-4.4,1-2.816,1-4.4,1-3.19-.329-4.4-1v6.622Z"/><path fill="#3ec4ff" d="M32.2,22.3c1.604,0,3.104-.436,4.399-1.186-3,1.517-6.747,1.05-9.259-1.454-3.12-3.13-3.12-8.191,0-11.321,1.332-1.332,3.005-2.093,4.738-2.291.522-.06.622-.749.141-.96-.289-.126-.581-.24-.876-.344-4.457.431-7.943,4.186-7.943,8.757,0,4.86,3.94,8.8,8.8,8.8Z"/></svg>