<svg xmlns="http://www.w3.org/2000/svg" width="64" height="64" viewBox="440 175 600 600">
  <defs>
    <linearGradient id="icoSky" x1="682" x2="682" y1="826.5" y2="77.72" gradientUnits="userSpaceOnUse">
      <stop offset="0" stop-color="#d1fbff"></stop>
      <stop offset="1" stop-color="#69c9f5"></stop>
    </linearGradient>
    <linearGradient id="icoSun" x1="757.32" x2="757.32" y1="691.51" y2="207.52" gradientUnits="userSpaceOnUse">
      <stop offset="0" stop-color="#f55b2d"></stop>
      <stop offset="1" stop-color="#ec210a"></stop>
    </linearGradient>
  </defs>
  <rect x="440" y="175" width="600" height="600" fill="url(#icoSky)"></rect>
  <circle cx="757.32" cy="449.51" r="242" fill="url(#icoSun)"></circle>
  <path fill="#7fbcd8" d="M1321.47,826H59.14A2018.15,2018.15,0,0,1,304.68,687.67c168.49-79.53,344.44-241.44,369.58-273.62s36-37.88,44.16-33.15,15.62-1.42,27.84-7.57,27.87-.94,28.21,4.73,15.27-2.37,20,.95,139,183.73,306.39,270.79C1197.18,699.88,1280.64,782,1321.47,826Z"></path>
  <path fill="#fbfffe" d="M266.09,706.45h0s62.15-6.15,126.46-42.76,100.32-58.71,103-58.39S453,645.7,453,645.7s46.31-17.14,62.62-32.32,78.12-53.06,81.18-54c0,0-13.93,18.46-23.1,28.4s-18.68,10-35.32,25.6-37,23.16-37,23.16,23.61-6.15,29.21-9.94,13.59-8.76,13.59-8.76-16.3,16.81-20.38,23.2c0,0,16.81-14,24.46-17s29-26.28,29-26.28l-8,17.76s17-4.74,21.91-9c0,0-10.19,15.39-18.35,21.54,0,0,24.63-9.94,36.52-24.14,0,0,.68,21.78-13.93,48.76S550.62,718,550.62,718s24.11-15.62,49.59-56.81S630.78,600.56,641,592,661,576,661,576s6.79,18.93-3.4,43.55-18.68,52.55-29.55,67.22c0,0,25.82-24.14,42.46-33.13s35.67-22.66,64.2-40.21,63.18-28.44,72-36c7.51-6.44,3.73-25.87,2.42-31.55A29.82,29.82,0,0,0,828.81,566c17.32,5.68,23.44,17.51,36,27s21.4,20.36,30.23,34.56c0,0-6.63-22.72-17-29.35s-11.21-17.05-10.36-18,10.36,7.1,13.42,6.15,6.11-2.84,12.57,4.26,12.23,18,18.51,17.28,18.34,19.65,18.34,19.65-8.15-19.17-14.26-24.15S910,592.52,910,592.52s12.91,9.7,22.59,15.86,13.08,5.91,21.06,14.67a34.66,34.66,0,0,0,18.17,10.42s-9.68-10.66-12.56-18.94-1.19-14.2-1.19-19.41S948,576,948.55,576s12.23,15.38,21.74,22.72,15.45,3.08,18.34,1.18,15.12,2.13,31.93,17.28,28.89,17.52,41.78,18c11.33.42,26.62,8.31,30.16,10.22C929,556.74,799.18,382.27,794.5,379s-19.7,4.73-20-.95-16-10.89-28.19-4.73-19.7,12.31-27.86,7.57-19,1-44.15,33.14S473.17,608.14,304.69,687.67Q284.93,697,266.09,706.45Z"></path>
</svg>
